<?xml version="1.0" encoding="UTF-8" standalone="no"?>
<!DOCTYPE svg PUBLIC "-//W3C//DTD SVG 1.1//EN"
 "http://www.w3.org/Graphics/SVG/1.1/DTD/svg11.dtd">
<!-- Generated by graphviz version 12.2.1 (20241206.2353)
 -->
<!-- Title: Network Pages: 1 -->
<svg width="3274pt" height="548pt"
 viewBox="0.00 0.00 3274.26 548.12" xmlns="http://www.w3.org/2000/svg" xmlns:xlink="http://www.w3.org/1999/xlink">
<g id="graph0" class="graph" transform="scale(1 1) rotate(0) translate(4 544.12)">
<title>Network</title>
<polygon fill="white" stroke="none" points="-4,4 -4,-544.12 3270.26,-544.12 3270.26,4 -4,4"/>
<!-- 1 -->
<g id="node1" class="node">
<title>1</title>
<ellipse fill="lightblue" stroke="black" cx="1421.09" cy="-466.23" rx="73.89" ry="73.89"/>
<text text-anchor="middle" x="1421.09" y="-469.43" font-family="Times New Roman,serif" font-size="14.00">server.node1 (1)</text>
<text text-anchor="middle" x="1421.09" y="-452.93" font-family="Times New Roman,serif" font-size="14.00">0.0.0.0:9901</text>
</g>
<!-- 2 -->
<g id="node2" class="node">
<title>2</title>
<ellipse fill="lightblue" stroke="black" cx="1753.09" cy="-265.95" rx="73.89" ry="73.89"/>
<text text-anchor="middle" x="1753.09" y="-269.15" font-family="Times New Roman,serif" font-size="14.00">server.node2 (2)</text>
<text text-anchor="middle" x="1753.09" y="-252.65" font-family="Times New Roman,serif" font-size="14.00">0.0.0.0:9902</text>
</g>
<!-- 1&#45;&gt;2 -->
<g id="edge1" class="edge">
<title>1&#45;&gt;2</title>
<path fill="none" stroke="black" stroke-width="2" d="M1495.23,-463.42C1563.57,-457.34 1662.81,-437.17 1721.09,-374.34 1727.26,-367.69 1731.93,-359.8 1735.5,-351.36"/>
<polygon fill="black" stroke="black" stroke-width="2" points="1738.78,-352.59 1738.85,-341.99 1732.19,-350.23 1738.78,-352.59"/>
</g>
<!-- 1&#45;&gt;2 -->
<g id="edge15" class="edge">
<title>1&#45;&gt;2</title>
<path fill="none" stroke="#9be7c1" stroke-dasharray="5,2" d="M1347.14,-464.34C1227.03,-460.48 1010.35,-442.04 1087.84,-357.84 1104.16,-340.1 1280.16,-342.77 1304.09,-339.84 1431.88,-324.17 1579,-298.9 1669,-282.61"/>
<polygon fill="#9be7c1" stroke="#9be7c1" points="1669.53,-286.07 1678.74,-280.84 1668.28,-279.18 1669.53,-286.07"/>
<text text-anchor="middle" x="1243.46" y="-361.04" font-family="Times New Roman,serif" font-size="14.00" fill="#9be7c1">{&#39;udp_tunnel_id&#39;: 2012}: 0.0.0.0:2010 → 127.0.0.1:8302</text>
</g>
<!-- 3 -->
<g id="node3" class="node">
<title>3</title>
<ellipse fill="lightblue" stroke="black" cx="566.09" cy="-69.78" rx="69.78" ry="69.78"/>
<text text-anchor="middle" x="566.09" y="-64.73" font-family="Times New Roman,serif" font-size="14.00">client.node3 (3)</text>
</g>
<!-- 1&#45;&gt;3 -->
<g id="edge11" class="edge">
<title>1&#45;&gt;3</title>
<path fill="none" stroke="#bdc685" stroke-dasharray="5,2" d="M1347.09,-464.25C1072.27,-459.84 121.41,-437.59 32.09,-339.84 -12.22,-291.35 -8.89,-243.38 32.09,-192.05 87.87,-122.18 349.94,-89.52 485.06,-77.1"/>
<polygon fill="#bdc685" stroke="#bdc685" points="485,-80.62 494.64,-76.24 484.37,-73.65 485,-80.62"/>
<text text-anchor="middle" x="248.09" y="-260.9" font-family="Times New Roman,serif" font-size="14.00" fill="#bdc685">{&#39;tcp_tunnel_id&#39;: 1021, &#39;udp_tunnel_id&#39;: 1022}: 0.0.0.0:1020 → 127.0.0.1:8303</text>
</g>
<!-- 4 -->
<g id="node4" class="node">
<title>4</title>
<ellipse fill="lightblue" stroke="black" cx="2762.09" cy="-69.78" rx="69.78" ry="69.78"/>
<text text-anchor="middle" x="2762.09" y="-64.73" font-family="Times New Roman,serif" font-size="14.00">client.node4 (4)</text>
</g>
<!-- 1&#45;&gt;4 -->
<g id="edge12" class="edge">
<title>1&#45;&gt;4</title>
<path fill="none" stroke="#bdc685" stroke-dasharray="5,2" d="M1492.65,-446.82C1561.03,-429.02 1666.89,-400.91 1758.09,-374.34 2018.33,-298.52 2073.09,-238.82 2340.09,-192.05 2362.87,-188.06 2739.61,-190.29 2756.09,-174.05 2762.77,-167.47 2766.98,-159.27 2769.44,-150.38"/>
<polygon fill="#bdc685" stroke="#bdc685" points="2772.84,-151.25 2771.33,-140.76 2765.97,-149.9 2772.84,-151.25"/>
<text text-anchor="middle" x="2556.09" y="-260.9" font-family="Times New Roman,serif" font-size="14.00" fill="#bdc685">{&#39;tcp_tunnel_id&#39;: 1021, &#39;udp_tunnel_id&#39;: 1022}: 0.0.0.0:1020 → 127.0.0.1:8304</text>
</g>
<!-- 2&#45;&gt;1 -->
<g id="edge2" class="edge">
<title>2&#45;&gt;1</title>
<path fill="none" stroke="black" stroke-width="2" d="M1757.27,-339.98C1753.74,-352.62 1747.97,-364.76 1739.09,-374.34 1680.43,-437.57 1580.29,-457.6 1507.97,-463.54"/>
<polygon fill="black" stroke="black" stroke-width="2" points="1508,-460.03 1498.28,-464.24 1508.51,-467.01 1508,-460.03"/>
</g>
<!-- 2&#45;&gt;1 -->
<g id="edge16" class="edge">
<title>2&#45;&gt;1</title>
<path fill="none" stroke="#d214ef" stroke-dasharray="5,2" d="M1679.6,-276.49C1591.03,-289.67 1450.11,-316.6 1418.59,-357.84 1413.09,-365.03 1409.77,-373.35 1407.99,-382.11"/>
<polygon fill="#d214ef" stroke="#d214ef" points="1404.54,-381.53 1406.72,-391.9 1411.48,-382.44 1404.54,-381.53"/>
<text text-anchor="middle" x="1572.34" y="-361.04" font-family="Times New Roman,serif" font-size="14.00" fill="#d214ef">{&#39;tcp_tunnel_id&#39;: 3011}: 0.0.0.0:3010 → 127.0.0.1:8301</text>
</g>
<!-- 2&#45;&gt;3 -->
<g id="edge13" class="edge">
<title>2&#45;&gt;3</title>
<path fill="none" stroke="#bdc685" stroke-dasharray="5,2" d="M1679.39,-258.35C1598.53,-248.75 1466.73,-226.02 1365.09,-174.05 1355.13,-168.96 1356.33,-162.04 1346.09,-157.55 1222.2,-103.27 821.33,-80.99 647.61,-73.73"/>
<polygon fill="#bdc685" stroke="#bdc685" points="647.9,-70.23 637.76,-73.32 647.61,-77.23 647.9,-70.23"/>
<text text-anchor="middle" x="1581.09" y="-160.75" font-family="Times New Roman,serif" font-size="14.00" fill="#bdc685">{&#39;tcp_tunnel_id&#39;: 1021, &#39;udp_tunnel_id&#39;: 1022}: 0.0.0.0:1020 → 127.0.0.1:8303</text>
</g>
<!-- 2&#45;&gt;4 -->
<g id="edge14" class="edge">
<title>2&#45;&gt;4</title>
<path fill="none" stroke="#bdc685" stroke-dasharray="5,2" d="M1827.27,-264.57C1933,-261.36 2130.86,-245.29 2281.09,-174.05 2291.19,-169.26 2290.02,-162.42 2300.09,-157.55 2423.99,-97.64 2585.15,-79.01 2680.7,-73.26"/>
<polygon fill="#bdc685" stroke="#bdc685" points="2680.72,-76.77 2690.51,-72.71 2680.33,-69.78 2680.72,-76.77"/>
<text text-anchor="middle" x="2516.09" y="-160.75" font-family="Times New Roman,serif" font-size="14.00" fill="#bdc685">{&#39;tcp_tunnel_id&#39;: 1021, &#39;udp_tunnel_id&#39;: 1022}: 0.0.0.0:1020 → 127.0.0.1:8304</text>
</g>
<!-- 3&#45;&gt;1 -->
<g id="edge3" class="edge">
<title>3&#45;&gt;1</title>
<path fill="none" stroke="black" stroke-width="2" d="M525.82,-127.11C519.94,-136.95 514.42,-147.32 510.09,-157.55 472.52,-246.28 437.73,-310.72 510.09,-374.34 571.25,-428.11 1118.31,-454.04 1334.11,-462.24"/>
<polygon fill="black" stroke="black" stroke-width="2" points="1333.77,-465.73 1343.89,-462.61 1334.03,-458.74 1333.77,-465.73"/>
</g>
<!-- 3&#45;&gt;1 -->
<g id="edge7" class="edge">
<title>3&#45;&gt;1</title>
<path fill="none" stroke="#668aa5" stroke-dasharray="5,2" d="M535.99,-133.1C511.79,-193.31 489.14,-283.45 538.09,-339.84 590.07,-399.72 1124.28,-444.06 1335.66,-459.39"/>
<polygon fill="#668aa5" stroke="#668aa5" points="1335.26,-462.87 1345.49,-460.09 1335.77,-455.89 1335.26,-462.87"/>
<text text-anchor="middle" x="754.09" y="-260.9" font-family="Times New Roman,serif" font-size="14.00" fill="#668aa5">{&#39;tcp_tunnel_id&#39;: 1011, &#39;udp_tunnel_id&#39;: 1012}: 0.0.0.0:1010 → 127.0.0.1:8301</text>
</g>
<!-- 3&#45;&gt;1 -->
<g id="edge17" class="edge">
<title>3&#45;&gt;1</title>
<path fill="none" stroke="#4985f7" stroke-dasharray="5,2" d="M552.91,-138.68C553.9,-151.85 557.87,-164.51 567.09,-174.05 598.22,-206.3 931.84,-168.68 970.09,-192.05 1049.68,-240.69 1000.07,-317.57 1074.09,-374.34 1150.11,-432.65 1260.09,-453.7 1335.75,-461.22"/>
<polygon fill="#4985f7" stroke="#4985f7" points="1335.33,-464.69 1345.61,-462.13 1335.98,-457.72 1335.33,-464.69"/>
<text text-anchor="middle" x="1196.24" y="-260.9" font-family="Times New Roman,serif" font-size="14.00" fill="#4985f7">{&#39;tcp_tunnel_id&#39;: 4011}: 0.0.0.0:4010 → 127.0.0.1:8401</text>
</g>
<!-- 3&#45;&gt;2 -->
<g id="edge4" class="edge">
<title>3&#45;&gt;2</title>
<path fill="none" stroke="black" stroke-width="2" d="M636.08,-70.27C885.65,-69.2 1721.39,-72.06 1801.09,-157.55 1811.8,-169.05 1811.74,-183.33 1806.41,-197.69"/>
<polygon fill="black" stroke="black" stroke-width="2" points="1803.39,-195.87 1802.38,-206.42 1809.75,-198.81 1803.39,-195.87"/>
</g>
<!-- 3&#45;&gt;2 -->
<g id="edge8" class="edge">
<title>3&#45;&gt;2</title>
<path fill="none" stroke="#668aa5" stroke-dasharray="5,2" d="M564.27,-139.77C567.25,-152.87 572.94,-165.22 583.09,-174.05 613.31,-200.36 1264.19,-188.33 1304.09,-192.05 1432.47,-204.02 1579.72,-230.37 1669.56,-247.89"/>
<polygon fill="#668aa5" stroke="#668aa5" points="1668.79,-251.31 1679.28,-249.8 1670.14,-244.44 1668.79,-251.31"/>
<text text-anchor="middle" x="799.09" y="-160.75" font-family="Times New Roman,serif" font-size="14.00" fill="#668aa5">{&#39;tcp_tunnel_id&#39;: 1011, &#39;udp_tunnel_id&#39;: 1012}: 0.0.0.0:1010 → 127.0.0.1:8302</text>
</g>
<!-- 3&#45;&gt;2 -->
<g id="edge18" class="edge">
<title>3&#45;&gt;2</title>
<path fill="none" stroke="#4985f7" stroke-dasharray="5,2" d="M636.03,-73.39C727.37,-79.19 890.31,-97.8 1015.09,-157.55 1025.33,-162.46 1024.06,-169.79 1034.59,-174.05 1090.23,-196.57 1244.45,-185.24 1304.09,-192.05 1432,-206.67 1579.09,-232.23 1669.05,-248.87"/>
<polygon fill="#4985f7" stroke="#4985f7" points="1668.32,-252.3 1678.79,-250.68 1669.59,-245.41 1668.32,-252.3"/>
<text text-anchor="middle" x="1188.34" y="-160.75" font-family="Times New Roman,serif" font-size="14.00" fill="#4985f7">{&#39;tcp_tunnel_id&#39;: 4011}: 0.0.0.0:4010 → 127.0.0.1:8402</text>
</g>
<!-- 4&#45;&gt;1 -->
<g id="edge5" class="edge">
<title>4&#45;&gt;1</title>
<path fill="none" stroke="black" stroke-width="2" d="M2788.98,-134.67C2809.95,-195.85 2827.75,-286.5 2776.09,-339.84 2687.82,-430.98 1793.53,-457.46 1508.13,-463.62"/>
<polygon fill="black" stroke="black" stroke-width="2" points="1508.35,-460.11 1498.43,-463.82 1508.5,-467.11 1508.35,-460.11"/>
</g>
<!-- 4&#45;&gt;1 -->
<g id="edge9" class="edge">
<title>4&#45;&gt;1</title>
<path fill="none" stroke="#668aa5" stroke-dasharray="5,2" d="M2800.63,-128.24C2805.35,-137.69 2809.44,-147.64 2812.09,-157.55 2833.03,-235.85 2851.3,-271.92 2807.09,-339.84 2787.73,-369.58 2769.4,-365.29 2735.09,-374.34 2501.68,-435.92 1759.52,-457.75 1506.53,-463.51"/>
<polygon fill="#668aa5" stroke="#668aa5" points="1506.64,-460 1496.72,-463.73 1506.8,-467 1506.64,-460"/>
<text text-anchor="middle" x="3050.26" y="-260.9" font-family="Times New Roman,serif" font-size="14.00" fill="#668aa5">{&#39;tcp_tunnel_id&#39;: 1011, &#39;udp_tunnel_id&#39;: 1012}: 0.0.0.0:1010 → 127.0.0.1:8301</text>
</g>
<!-- 4&#45;&gt;2 -->
<g id="edge6" class="edge">
<title>4&#45;&gt;2</title>
<path fill="none" stroke="black" stroke-width="2" d="M2757.52,-139.78C2753.43,-152.97 2746.77,-165.35 2736.09,-174.05 2718.07,-188.73 2341.25,-190.06 2318.09,-192.05 2147.47,-206.71 1949.19,-234.88 1838.71,-251.59"/>
<polygon fill="black" stroke="black" stroke-width="2" points="1838.36,-248.1 1829,-253.06 1839.42,-255.02 1838.36,-248.1"/>
</g>
<!-- 4&#45;&gt;2 -->
<g id="edge10" class="edge">
<title>4&#45;&gt;2</title>
<path fill="none" stroke="#668aa5" stroke-dasharray="5,2" d="M2692.07,-70.92C2504.78,-72.3 1996.51,-83.03 1849.09,-157.55 1838.25,-163.03 1821.82,-179.81 1805.59,-198.53"/>
<polygon fill="#668aa5" stroke="#668aa5" points="1802.98,-196.2 1799.16,-206.08 1808.31,-200.74 1802.98,-196.2"/>
<text text-anchor="middle" x="2065.09" y="-160.75" font-family="Times New Roman,serif" font-size="14.00" fill="#668aa5">{&#39;tcp_tunnel_id&#39;: 1011, &#39;udp_tunnel_id&#39;: 1012}: 0.0.0.0:1010 → 127.0.0.1:8302</text>
</g>
</g>
</svg>
